<svg xmlns="http://www.w3.org/2000/svg" width="683" height="680">
    <style>.st0{fill:#38b3ff}.st1{fill:#f7e800}</style>

    <g id="bars">
        <rect id="bars-top" x="327.1" y="2.7" fill="#f7e800" width="30.3" height="233.6"/>
        <rect id="bars-bottom" x="327.1" y="444.4" fill="#f7e800" width="30.3" height="230.9"/>
        <rect id="bars-right" x="446.8" y="326.1" fill="#38b3ff" width="230.8" height="30.3"/>
        <rect id="bars-left" x="2.6" y="326.1" fill="#38b3ff" width="233.7" height="30.3"/>
    </g>

    <g id="letters">
        <g id="letters-top-right">
            <path id="letters-top-right-a" fill="#f7e800" d="M444.9 188.7v34.7l38.9-14.5L511 165l-66.1 23.7zm105.5-37.4l-25.2 42.1 58.6-21.9-15.2-26.5-18.2 6.3zm41.7-53.9l56.1 19.7L597 135l15.2 25.8 65.4-24.4v-33.8l-72.5-27.7-13 22.5zm-29.4-10.3l3.7 1.3L579.5 65l-38.9-14.9 22.1 37zM444.9 45.4l67.5 23.8v93.7l22.3-35.7V97.1l-39.2-64.2-50.6-19.4v31.9z"/>
            <path id="letters-top-right-x" fill="#38b3ff" d="M483.7 208.8l-17.2 27.6h32.8l25.8-43-41.4 15.4zM511 165l1.3-.5v-1.6L511 165zm72.7 6.4l37.2 64.9h35.9l-44.7-75.6-28.4 10.7zm-49.1-74.3l9.3 15.2-9.3 14.9v29.6l15.8-5.5 11.2-18.6 7 12.2L597 135l-13.5-22.8 8.5-14.8-25.7-9-1.4 2.5-2.3-3.8-28.1-9.9v19.9h.1zM477.1 2.7l18.4 30.1 45.2 17.3-28.4-47.4h-35.2zm137.4 0l-35 62.3 25.6 9.8 41.6-72.1h-32.2z"/>
        </g>
        <g id="letters-bottom-right">
            <path id="letters-bottom-right-a" fill="#f7e800" d="M515.9 602.5l27.2 72.8h35.2l25.8-65.9-22.7-13.9-18.4 52.2-21.3-60.9-25.8 15.7zm-10.5-28l26.5-15.8-.6-1.7-41.1-23.1 15.2 40.6zm92.4-26.1l-7.7 21.9 23.7 14 22.5-57.5-38.5 21.6zm-141-104l18.4 49.4 70.1 40.4h18.2l38.3-22.3h-86.2l-24.1-67.5h-34.7zm179.8 0L613.5 505l40.5-23.6 14.5-37h-31.9z"/>
            <path id="letters-bottom-right-x" fill="#38b3ff" d="M604 609.4l73.6 45.2v-32.7l-63.8-37.6-9.8 25.1zm-159.1 1.2v35.3l71-43.3-10.5-28.1-60.5 36.1zm118.6-76.5l-9 5.3-9.1-5.3h-22l8 22.8 1.8 1-1.2.7 9.8 28.1 12.7-7.8 26.9 16.5 8.8-25.1-15.3-9 23-12.9 5-14.3h-39.4zm38.2-22.3h9.2l2.6-6.9-11.8 6.9zm-156.8-3.4l45.4 25.5-15-40.2-30.4-17.5v32.2zm209.1-27l-17.7 45.4 41.3-23.2v-35.8L654 481.4z"/>
            <path id="letters-right-overlay" d="M151 130.3l5.6 16.2h-29.2l35.7 22.3h1.2l.3 1 43.8 27.3-15.5-41.5-41.9-25.3zm-63.3-14l-36.9 22-17.3 45.1 60.6-37h-17l10.6-30.1zM74.8 75.7L65 101.3l23.4 13.1 9-25.7-22.6-13zm85.4-8.2l-25.8 15.2 9.9 28.4L170.8 96l-10.6-28.5zM597 135l-28.4 9.9 15.2 26.5 28.5-10.6L597 135zm-62.4-7.8l-22.3 35.7v1.6l-1.3.5-27.3 43.8 41.4-15.5 25.2-42.1-15.8 5.5.1-29.5zM579.5 65l-13.1 23.4 25.7 9 13-22.6-25.6-9.8zm-84.1-32.2L534.6 97V77.2l28.1 9.9-22-37-45.3-17.3zm94.7 537.6l-8.8 25.1 22.7 13.9 9.8-25.1-23.7-13.9zm-58.2-11.7l-26.5 15.8 10.5 28.1 25.8-15.8-9.8-28.1zm-56.7-64.9l15 40.2 41.1 23-8-22.8h22l-70.1-40.4zM654 481.4L613.5 505l-2.6 6.9h-9.2l-38.3 22.3h39.4l-5 14.3 38.5-21.6 17.7-45.5z"/>
        </g>
        <g id="letters-bottom-left">
            <path id="letters-bottom-left-a" fill="#38b3ff" d="M199.1 651.9l37.1 14.2v-31.9l-60-21.2 22.9 38.9zM96.3 612.6l57.4 22-21.3-37.1-22.4-7.9-13.7 23zm-93.7-69v33.1l68.5 26.2 13.8-22.2-52-18.3 60.9-21.3L78 515.3 2.6 543.6zm103.6-38.7l15.8 26.5 1.7-.6 23.1-41.1-40.6 15.2zm80.7-30.2l-40.4 70.1v18l22.3 37.7v-85.4l67.5-24.1v-34.7l-49.4 18.4z"/>
            <path id="letters-bottom-left-x" fill="#f7e800" d="M177.1 675.3H213l-13.8-23.4-45.4-17.4 23.3 40.8zm-151.1 0h32.7l37.7-62.8-25.2-9.7L26 675.3zm142.8-64.9l7.4 2.6-7.4-12.5v9.9zm-45.1-79.6l-1 1.8-.7-1.2-28.1 9.8 7.8 12.7L85 580.7l25.2 8.9 9.1-15.2 13.2 23.1 14 4.9v-39.5l-5.3-8.9 5.3-9.1v-22l-22.8 7.9zm-88.9-86.4l43.3 71 28.1-10.5-36.1-60.5H34.8zm137.4 0l-25.5 45.4 40.2-15 17.5-30.4h-32.2z"/>
        </g>
        <g id="letters-top-left">
            <path id="letters-top-left-x" fill="#f7e800" d="M163.2 168.7l1.5.9-.3-.9h-1.2zm45.4 28.3l26.6 16.6v-32.8l-42-25.2 15.4 41.4zM1.5 167.8V203l32.1-19.6 17.3-45.2-49.4 29.6zM111 96.6l-13.6-7.8-9 25.7 1.3.7-1.9 1.2-10.6 30.2h17.1l16.8-10.3 16.5 10.3h29.2l-5.6-16.1-19.6-11.8 12.9-7.4-9.9-28.4L111 96.6zM1.5 65.6L65 101.3l9.8-25.6L1.5 33.5v32.1zm158.7 1.9L170.8 96l64.3-36.8v-36l-74.9 44.3z"/>
            <path id="letters-top-left-a" fill="#38b3ff" d="M188.5 236.2h34.7L208.6 197l-43.8-27.3 23.7 66.5zm-94.3-89.7l-60.6 37-20.2 52.8h31.9l23.8-67.5h94.1l-35.7-22.3H94.2zm-43.3-8.2l36.9-22 .7-1.9L65 101.3l-14.1 37zm93.5-27.1l6.7 19.1 42 25.2L170.8 96l-26.4 15.2zM102.8 2.6l-28 73.2 22.6 13L117 32.9l17.4 49.9 25.8-15.2-24.3-65h-33.1z"/>
            <path id="letters-left-overlay" d="M84.9 580.7l-13.8 22.2 25.2 9.7 13.8-23-25.2-8.9zm61.6-17.9v39.5l-14-4.9 21.3 37.1 45.4 17.4-23-38.9-7.4-2.6v-9.9l-22.3-37.7zm-40.3-57.9l-28.1 10.5 15.8 25.8 28.1-9.8-15.8-26.5zm80.7-30.2l-40.2 15-23.1 41.1 22.8-8v22l40.5-70.1zM151 130.3l5.6 16.2h-29.2l35.7 22.3h1.2l.3 1 43.8 27.3-15.5-41.5-41.9-25.3zm-63.3-14l-36.9 22-17.3 45.1 60.6-37h-17l10.6-30.1zM74.8 75.7L65 101.3l23.4 13.1 9-25.7-22.6-13zm85.4-8.2l-25.8 15.2 9.9 28.4L170.8 96l-10.6-28.5z"/>
        </g>
    </g>

    <g id="text">
        <path id="text-bottom" d="M97.315 396.356c.995 0 1.96-.142 2.894-.426a8.593 8.593 0 0 0 2.592-1.295c.793-.58 1.426-1.366 1.9-2.36.473-.993.71-2.14.71-3.442 0-1.42-.391-2.673-1.172-3.761-.781-1.088-1.93-1.905-3.444-2.449 2.533-1.135 3.799-2.957 3.799-5.464 0-1.987-.675-3.484-2.024-4.489s-3.089-1.508-5.22-1.508c-1.23 0-2.33.19-3.301.568-.97.378-1.693.804-2.166 1.277a6.577 6.577 0 0 0-1.19 1.632c-.319.615-.508 1.041-.567 1.278-.06.236-.101.426-.125.568l2.947.46.071-.354c.048-.213.166-.479.355-.798.19-.32.432-.633.728-.94.296-.308.734-.574 1.314-.8.58-.224 1.237-.336 1.97-.336 1.16 0 2.107.337 2.84 1.011.735.674 1.101 1.532 1.101 2.573 0 1.372-.538 2.448-1.615 3.229-1.077.78-2.692 1.088-4.846.922v2.768c4.734-.307 7.1 1.313 7.1 4.861 0 1.396-.42 2.52-1.26 3.371-.84.852-2.018 1.278-3.533 1.278-.78 0-1.479-.13-2.094-.39-.616-.26-1.083-.55-1.403-.87a4.749 4.749 0 0 1-.817-1.1c-.224-.414-.355-.704-.39-.87a12.498 12.498 0 0 0-.089-.39l-3.302.355.107.604c.07.402.272.893.603 1.472.332.58.77 1.16 1.314 1.739.544.58 1.361 1.07 2.45 1.473 1.089.402 2.343.603 3.763.603Zm-35.81-9.51v-2.626H25.998v2.626h35.505Zm20.867 8.977v-2.91l-11.148.072c7.124-6.695 10.687-11.805 10.687-15.33 0-2.2-.68-3.832-2.042-4.896-1.361-1.065-3.024-1.597-4.988-1.597-2.107 0-3.84.55-5.202 1.65-1.361 1.1-2.16 2.62-2.397 4.56l3.444.355c.071-1.065.42-1.964 1.048-2.697.627-.734 1.556-1.1 2.787-1.1 1.302 0 2.266.343 2.894 1.029.627.686.94 1.585.94 2.697 0 .899-.354 1.999-1.065 3.3-.71 1.3-1.745 2.75-3.106 4.346a138.537 138.537 0 0 1-3.515 3.992 167.847 167.847 0 0 1-3.675 3.833v2.696h15.338Zm-66.003 0v-6.919h3.8v-2.732l-3.8.035.036-14.513h-4.367l-10.19 14.549v2.661h11.361v6.92h3.16Zm-10.9-9.58 7.811-11.533-.035 11.497-7.776.036Zm127.353 10.113c2.864 0 5.024-.704 6.48-2.112 1.455-1.407 2.183-3.779 2.183-7.114v-18.097h-3.338v18.097c0 2.224-.443 3.838-1.331 4.843-.888 1.006-2.255 1.509-4.1 1.509-3.433 0-5.28-1.857-5.54-5.571l-3.16.496c.071.97.213 1.822.426 2.555 1.042 3.596 3.835 5.394 8.38 5.394Zm28.217 0c3.55 0 6.16-.964 7.83-2.892 1.668-1.928 2.502-4.513 2.502-7.754v-16.677h-3.266v15.648c0 5.89-2.332 8.836-6.995 8.836-2.414 0-4.112-.769-5.095-2.306-.982-1.538-1.473-3.714-1.473-6.53v-15.648h-3.55v16.677c0 3.36.775 5.974 2.325 7.842 1.55 1.87 4.124 2.804 7.722 2.804Zm23.673-.533v-26.79h-3.48v26.79h3.48Zm25.84 0v-3.158l-12.534.071.035-23.703h-3.48v26.79h15.978Zm23.175 0v-3.158l-12.533.071.035-23.703h-3.48v26.79h15.978Zm23.531 0v-3.087l-12.96.071v-9.155h10.759v-2.91h-10.758l.035-8.728 12.64.035v-3.016h-16.048v26.79h16.332Zm18.667 0-.036-23.88 9.303.07v-2.98h-21.8v2.98l9.089-.07-.036 23.88h3.48Zm44.08 0v-2.91l-11.15.072c7.125-6.695 10.688-11.805 10.688-15.33 0-2.2-.68-3.832-2.042-4.896-1.36-1.065-3.024-1.597-4.988-1.597-2.107 0-3.84.55-5.202 1.65-1.36 1.1-2.16 2.62-2.396 4.56l3.444.355c.07-1.065.42-1.964 1.047-2.697.627-.734 1.556-1.1 2.787-1.1 1.302 0 2.267.343 2.894 1.029.627.686.94 1.585.94 2.697 0 .899-.354 1.999-1.064 3.3-.71 1.3-1.746 2.75-3.107 4.346a138.537 138.537 0 0 1-3.515 3.992 167.848 167.848 0 0 1-3.675 3.833v2.696h15.338Zm16.784.533c1.61 0 2.989-.361 4.137-1.083a6.9 6.9 0 0 0 2.61-2.962 15.775 15.775 0 0 0 1.26-3.94c.248-1.371.373-2.885.373-4.541 0-8.445-2.805-12.668-8.415-12.668-1.61 0-2.994.367-4.154 1.1a7.072 7.072 0 0 0-2.645 2.998 16.056 16.056 0 0 0-1.296 4.01c-.26 1.408-.391 2.928-.391 4.56 0 8.35 2.84 12.526 8.521 12.526Zm-.106-2.768c-3.267 0-4.9-3.253-4.9-9.758 0-1.325.077-2.537.23-3.637.155-1.1.41-2.141.764-3.123.355-.982.864-1.75 1.527-2.306.663-.556 1.456-.834 2.379-.834 1.23 0 2.23.502 3 1.508.77 1.005 1.29 2.206 1.562 3.601.272 1.396.409 2.993.409 4.79 0 1.799-.137 3.384-.409 4.756-.272 1.372-.793 2.549-1.562 3.53-.77.982-1.77 1.473-3 1.473Zm31.839 2.235v-2.91l-11.149.072c7.125-6.695 10.687-11.805 10.687-15.33 0-2.2-.68-3.832-2.041-4.896-1.361-1.065-3.024-1.597-4.989-1.597-2.106 0-3.84.55-5.201 1.65-1.361 1.1-2.16 2.62-2.397 4.56l3.444.355c.071-1.065.42-1.964 1.048-2.697.627-.734 1.556-1.1 2.787-1.1 1.302 0 2.266.343 2.894 1.029.627.686.94 1.585.94 2.697 0 .899-.355 1.999-1.065 3.3-.71 1.3-1.745 2.75-3.106 4.346a138.537 138.537 0 0 1-3.515 3.992 167.848 167.848 0 0 1-3.675 3.833v2.696h15.338Zm23.176 0v-2.91l-11.149.072c7.125-6.695 10.687-11.805 10.687-15.33 0-2.2-.68-3.832-2.041-4.896-1.361-1.065-3.024-1.597-4.989-1.597-2.106 0-3.84.55-5.201 1.65-1.361 1.1-2.16 2.62-2.397 4.56l3.444.355c.071-1.065.42-1.964 1.048-2.697.627-.734 1.556-1.1 2.787-1.1 1.302 0 2.266.343 2.893 1.029.628.686.941 1.585.941 2.697 0 .899-.355 1.999-1.065 3.3-.71 1.3-1.745 2.75-3.107 4.346a138.537 138.537 0 0 1-3.515 3.992 167.848 167.848 0 0 1-3.674 3.833v2.696h15.338Z"/>
        <path id="text-top" d="M661.4 307.6h16.2v-3.1l-12.9.1v-9.1h10.7v-2.9h-10.7v-8.7h12.6v-3h-15.9v26.7zm-19.1.5c8.7 0 10.5-7.3 10.5-7.3l-3.1-1s-1.5 5.3-7.3 5.3c-5.2 0-8.1-4.1-8.1-10.6s3.1-11 8.1-11c5.5 0 7.1 4.9 7.1 4.9l3-1.3s-2.1-6.5-10-6.5c-7.1 0-11.9 5.3-11.9 14-.1 9 4.9 13.5 11.7 13.5m-42.6-.5h3.3l-.2-22.6 14.3 22.6h4.3V281h-3.3l.2 22.2-14.2-22.2h-4.4v26.6zm-25.5 0h16.2v-3.1l-12.9.1v-9.1h10.7v-2.9h-10.7v-8.7H590v-3h-15.9v26.7h.1zm-21.8 0h4.4L566 281h-3.8l-7.4 23.2-7.3-23.2h-3.8l8.7 26.6zm-27.3-2.4c-5.1 0-8.1-4.3-8.1-10.8s3-10.8 8.1-10.8 8.2 4.3 8.2 10.8c.1 6.5-3.1 10.8-8.2 10.8m.1 2.9c7.1 0 11.9-5 11.9-13.8s-4.8-13.7-11.9-13.7c-7 0-11.9 5-11.9 13.8 0 8.9 4.8 13.7 11.9 13.7m-30.7-24.4c2.3 0 4.2.4 5.4 1.4 1 .8 1.5 2 1.5 3.7 0 2.2-1.2 3.6-2.4 4.2-1.4.6-3.6.7-5.4.7h-3.9v-9.9s2.5-.1 4.8-.1m7.7 23.9h4.2l-7.1-11.6c.5-.1 1-.3 1.4-.5 2.6-1.3 4.2-3.7 4.2-6.5 0-3.2-1.3-5.4-3.5-6.6-2-1.2-4.1-1.4-7.1-1.4-2.9 0-8 .1-8 .1v26.6h3.5l-.1-11.1h3.7c.5 0 1.4 0 2.4-.1l6.4 11.1zm-33.7-23.9c2.1 0 3.8.4 4.9 1.3 1 .8 1.5 2.2 1.5 4 0 2-1.1 3.4-2 4.1-1.8 1.2-4.3 1-5.3 1h-3.8v-10.3c.1 0 2.5-.1 4.7-.1m-8 23.9h3.5l-.1-10.6h3.8c3.2 0 4.9-.4 6.2-1 2.5-1.2 4.4-3.8 4.4-6.8 0-3.3-1.2-5.3-3.2-6.7-1.9-1.2-4-1.6-6.9-1.6-2.8 0-7.8.1-7.8.1v26.6h.1zm-43.3-8.9h35.3v-2.6h-35.3v2.6zm-29.1 8.9h3.3l-.2-22.6 14.3 22.6h4.3V281h-3.3l.2 22.2-14.2-22.2h-4.4v26.6zm-25.5 0h16.2v-3.1l-12.9.1v-9.1h10.7v-2.9h-10.7v-8.7h12.6v-3h-15.9v26.7zm-43.3-8.9h35.3v-2.6h-35.3v2.6zm-8.3 8.9h4.1l-8.4-14.1 7.2-12.5h-3.7l-5.6 10-6-10h-4l7.6 12.5-8.8 14.1h3.7l7.1-11.8 6.8 11.8zm-27.9 0h3.5V281h-3.5v26.6zm-20-23.2l4.5 12.9h-9.1l4.6-12.9zm-11.8 23.2h3.6l2.7-7.7h10.9l2.8 7.7h3.9l-9.9-26.6h-3.8l-10.2 26.6zm-5.8-16.2c1-1.1 2.8-2.7 2.8-6.2V281h-4.5v4.5h1.8c0 2.2-.9 3.5-1.9 4.7l1.8 1.2zm-23.6 13.4c-1.1 0-2.2 0-3.5-.1v-20.8c1.1 0 2-.1 3-.1 7.2 0 10.9 1.8 10.9 10.6 0 8.7-3.6 10.4-10.4 10.4m0 2.9c4.1-.1 7.9-.6 10.4-2.7 2.3-1.9 3.6-5.2 3.6-10.6 0-5-1.3-8.2-3.3-10.2-2.9-2.7-7.3-3.2-12.2-3.2-1.8 0-3.6 0-5.4.1v26.6h6.9m-44.5-.1h15.9v-3.1l-12.4.1v-23.5h-3.5v26.5zm-20-23.2l4.5 12.9h-9.1l4.6-12.9zm-11.8 23.2h3.6l2.7-7.7h10.9l2.8 7.7h3.9l-9.9-26.6h-3.8l-10.2 26.6zm-17.7 0h4.4l9.2-26.6h-3.8l-7.4 23.2L123 281h-3.8l8.7 26.6zm-20.4 0h3.5V281h-3.5v26.6zM78 283.9l9-.1v23.7h3.5v-23.7l9.2.1v-3H78v3zm-15.9 24.2c5.3 0 10-2.4 10-7.5 0-4.8-3.7-6.9-8.9-8.5-3.5-1.1-6.7-2.2-6.7-4.8 0-2.5 2.5-3.9 5.7-3.9 4.9 0 6 3.8 6 3.8l3.1-1.1s-1.5-5.7-9.1-5.7c-5.1 0-9.2 2.5-9.2 6.9 0 4.1 2.8 6.1 8 7.7 3.5 1.1 7.5 2.3 7.5 5.6 0 2.6-2.4 4.5-6.5 4.5-6.8 0-7.2-5.2-7.2-5.2l-3.3.6c.2.1.7 7.6 10.6 7.6m-34.2-.5h16.2v-3.1l-12.9.1v-9.1h10.7v-2.9H31.3v-8.7h12.5v-3H27.9v26.7zm-23.7 0h3.3v-12.1h9.9v-2.9H7.5v-8.7h11.7v-3h-15v26.7z"/>
    </g>
</svg>